<mxfile host="app.diagrams.net" modified="2021-02-28T04:09:02.585Z" agent="5.0 (Windows NT 10.0; Win64; x64) AppleWebKit/537.36 (KHTML, like Gecko) Chrome/88.0.4324.190 Safari/537.36" etag="LJHB5SaEyZ6MkYVAN4zA" version="14.4.3" type="github">
  <diagram id="eep23TEpH9YFJXfYMCp3" name="Page-1">
    <mxGraphModel dx="1784" dy="495" grid="1" gridSize="10" guides="1" tooltips="1" connect="1" arrows="1" fold="1" page="1" pageScale="1" pageWidth="850" pageHeight="1100" math="0" shadow="0">
      <root>
        <mxCell id="0" />
        <mxCell id="1" parent="0" />
        <mxCell id="KftTdbNhHA2uExKty297-1" style="edgeStyle=orthogonalEdgeStyle;rounded=0;orthogonalLoop=1;jettySize=auto;html=1;exitX=0;exitY=1;exitDx=0;exitDy=0;entryX=0.69;entryY=0.023;entryDx=0;entryDy=0;entryPerimeter=0;curved=1;strokeWidth=1;" parent="1" source="KftTdbNhHA2uExKty297-7" target="KftTdbNhHA2uExKty297-10" edge="1">
          <mxGeometry relative="1" as="geometry">
            <mxPoint x="390" y="75" as="sourcePoint" />
          </mxGeometry>
        </mxCell>
        <mxCell id="KftTdbNhHA2uExKty297-2" style="edgeStyle=orthogonalEdgeStyle;rounded=0;orthogonalLoop=1;jettySize=auto;html=1;exitX=0.5;exitY=1;exitDx=0;exitDy=0;entryX=0.75;entryY=0;entryDx=0;entryDy=0;curved=1;strokeWidth=1;" parent="1" source="KftTdbNhHA2uExKty297-7" target="KftTdbNhHA2uExKty297-8" edge="1">
          <mxGeometry relative="1" as="geometry">
            <mxPoint x="420" y="75" as="sourcePoint" />
          </mxGeometry>
        </mxCell>
        <mxCell id="KftTdbNhHA2uExKty297-3" style="edgeStyle=orthogonalEdgeStyle;rounded=0;orthogonalLoop=1;jettySize=auto;html=1;exitX=0.917;exitY=1;exitDx=0;exitDy=0;entryX=0.558;entryY=-0.067;entryDx=0;entryDy=0;entryPerimeter=0;curved=1;exitPerimeter=0;strokeWidth=1;" parent="1" source="KftTdbNhHA2uExKty297-7" edge="1">
          <mxGeometry relative="1" as="geometry">
            <mxPoint x="436.96000000000004" y="295.98" as="targetPoint" />
            <mxPoint x="450" y="75" as="sourcePoint" />
          </mxGeometry>
        </mxCell>
        <mxCell id="KftTdbNhHA2uExKty297-4" style="edgeStyle=orthogonalEdgeStyle;rounded=0;orthogonalLoop=1;jettySize=auto;html=1;exitX=1;exitY=1;exitDx=0;exitDy=0;curved=1;strokeWidth=1;" parent="1" source="KftTdbNhHA2uExKty297-7" target="KftTdbNhHA2uExKty297-11" edge="1">
          <mxGeometry relative="1" as="geometry">
            <mxPoint x="480" y="75" as="sourcePoint" />
          </mxGeometry>
        </mxCell>
        <mxCell id="KftTdbNhHA2uExKty297-5" style="edgeStyle=orthogonalEdgeStyle;orthogonalLoop=1;jettySize=auto;html=1;exitX=1;exitY=0.75;exitDx=0;exitDy=0;entryX=0.5;entryY=0;entryDx=0;entryDy=0;curved=1;strokeWidth=1;" parent="1" source="KftTdbNhHA2uExKty297-7" target="KftTdbNhHA2uExKty297-13" edge="1">
          <mxGeometry relative="1" as="geometry">
            <mxPoint x="510" y="75" as="sourcePoint" />
            <Array as="points">
              <mxPoint x="670" y="55" />
              <mxPoint x="670" y="250" />
              <mxPoint x="720" y="250" />
            </Array>
            <mxPoint x="790" y="260" as="targetPoint" />
          </mxGeometry>
        </mxCell>
        <mxCell id="KftTdbNhHA2uExKty297-6" style="edgeStyle=orthogonalEdgeStyle;rounded=0;orthogonalLoop=1;jettySize=auto;html=1;exitX=1;exitY=0.5;exitDx=0;exitDy=0;entryX=0.417;entryY=0;entryDx=0;entryDy=0;entryPerimeter=0;curved=1;strokeWidth=1;" parent="1" source="KftTdbNhHA2uExKty297-7" target="KftTdbNhHA2uExKty297-50" edge="1">
          <mxGeometry relative="1" as="geometry">
            <mxPoint x="510" y="30" as="sourcePoint" />
          </mxGeometry>
        </mxCell>
        <mxCell id="KftTdbNhHA2uExKty297-7" value="Scheduler" style="rounded=0;whiteSpace=wrap;html=1;strokeWidth=1;" parent="1" vertex="1">
          <mxGeometry x="340" y="10" width="120" height="60" as="geometry" />
        </mxCell>
        <mxCell id="KftTdbNhHA2uExKty297-8" value="Measure" style="rounded=0;whiteSpace=wrap;html=1;strokeWidth=1;" parent="1" vertex="1">
          <mxGeometry x="255" y="295" width="120" height="60" as="geometry" />
        </mxCell>
        <mxCell id="KftTdbNhHA2uExKty297-9" value="Contactor" style="rounded=0;whiteSpace=wrap;html=1;strokeWidth=1;" parent="1" vertex="1">
          <mxGeometry x="390" y="295" width="120" height="60" as="geometry" />
        </mxCell>
        <mxCell id="KftTdbNhHA2uExKty297-10" value="Alarm" style="rounded=0;whiteSpace=wrap;html=1;strokeWidth=1;" parent="1" vertex="1">
          <mxGeometry x="120" y="295" width="120" height="60" as="geometry" />
        </mxCell>
        <mxCell id="KftTdbNhHA2uExKty297-11" value="State of Charge" style="rounded=0;whiteSpace=wrap;html=1;strokeWidth=1;" parent="1" vertex="1">
          <mxGeometry x="520" y="295" width="120" height="60" as="geometry" />
        </mxCell>
        <mxCell id="KftTdbNhHA2uExKty297-13" value="Display" style="rounded=0;whiteSpace=wrap;html=1;strokeWidth=1;" parent="1" vertex="1">
          <mxGeometry x="660" y="295" width="120" height="60" as="geometry" />
        </mxCell>
        <mxCell id="KftTdbNhHA2uExKty297-14" value="updateVoltage" style="rounded=0;whiteSpace=wrap;html=1;strokeWidth=1;" parent="1" vertex="1">
          <mxGeometry x="170" y="435" width="120" height="60" as="geometry" />
        </mxCell>
        <mxCell id="KftTdbNhHA2uExKty297-15" value="updateCurrent" style="rounded=0;whiteSpace=wrap;html=1;align=center;strokeWidth=1;" parent="1" vertex="1">
          <mxGeometry x="280" y="528.75" width="120" height="60" as="geometry" />
        </mxCell>
        <mxCell id="KftTdbNhHA2uExKty297-16" value="updateTemperature" style="rounded=0;whiteSpace=wrap;html=1;strokeWidth=1;" parent="1" vertex="1">
          <mxGeometry x="320" y="440" width="120" height="60" as="geometry" />
        </mxCell>
        <mxCell id="KftTdbNhHA2uExKty297-17" value="updateHVIL" style="rounded=0;whiteSpace=wrap;html=1;strokeWidth=1;" parent="1" vertex="1">
          <mxGeometry x="450" y="468.75" width="120" height="60" as="geometry" />
        </mxCell>
        <mxCell id="KftTdbNhHA2uExKty297-18" value="updateContactor" style="rounded=0;whiteSpace=wrap;html=1;strokeWidth=1;" parent="1" vertex="1">
          <mxGeometry x="550" y="550" width="120" height="60" as="geometry" />
        </mxCell>
        <mxCell id="KftTdbNhHA2uExKty297-19" value="" style="endArrow=classic;html=1;strokeWidth=1;entryX=0.5;entryY=0;entryDx=0;entryDy=0;curved=1;exitX=0.75;exitY=1;exitDx=0;exitDy=0;" parent="1" source="KftTdbNhHA2uExKty297-9" target="KftTdbNhHA2uExKty297-18" edge="1">
          <mxGeometry width="50" height="50" relative="1" as="geometry">
            <mxPoint x="530" y="390" as="sourcePoint" />
            <mxPoint x="560" y="445" as="targetPoint" />
            <Array as="points">
              <mxPoint x="610" y="500" />
            </Array>
          </mxGeometry>
        </mxCell>
        <mxCell id="KftTdbNhHA2uExKty297-20" value="" style="endArrow=classic;html=1;strokeWidth=1;exitX=0;exitY=1;exitDx=0;exitDy=0;entryX=0.5;entryY=0;entryDx=0;entryDy=0;curved=1;" parent="1" source="KftTdbNhHA2uExKty297-8" target="KftTdbNhHA2uExKty297-14" edge="1">
          <mxGeometry width="50" height="50" relative="1" as="geometry">
            <mxPoint x="410" y="445" as="sourcePoint" />
            <mxPoint x="460" y="395" as="targetPoint" />
            <Array as="points" />
          </mxGeometry>
        </mxCell>
        <mxCell id="KftTdbNhHA2uExKty297-21" value="" style="endArrow=classic;html=1;strokeWidth=1;curved=1;exitX=0.274;exitY=1.003;exitDx=0;exitDy=0;exitPerimeter=0;entryX=0.703;entryY=-0.029;entryDx=0;entryDy=0;entryPerimeter=0;" parent="1" source="KftTdbNhHA2uExKty297-8" target="KftTdbNhHA2uExKty297-15" edge="1">
          <mxGeometry width="50" height="50" relative="1" as="geometry">
            <mxPoint x="340" y="405" as="sourcePoint" />
            <mxPoint x="480" y="365" as="targetPoint" />
            <Array as="points">
              <mxPoint x="304" y="520" />
              <mxPoint x="364" y="510" />
            </Array>
          </mxGeometry>
        </mxCell>
        <mxCell id="KftTdbNhHA2uExKty297-22" value="" style="endArrow=classic;html=1;strokeWidth=1;exitX=0.75;exitY=1;exitDx=0;exitDy=0;entryX=0.417;entryY=0;entryDx=0;entryDy=0;entryPerimeter=0;curved=1;" parent="1" source="KftTdbNhHA2uExKty297-8" target="KftTdbNhHA2uExKty297-16" edge="1">
          <mxGeometry width="50" height="50" relative="1" as="geometry">
            <mxPoint x="480" y="395" as="sourcePoint" />
            <mxPoint x="530" y="345" as="targetPoint" />
            <Array as="points">
              <mxPoint x="370" y="405" />
            </Array>
          </mxGeometry>
        </mxCell>
        <mxCell id="KftTdbNhHA2uExKty297-23" value="" style="endArrow=classic;html=1;strokeWidth=1;exitX=1;exitY=1;exitDx=0;exitDy=0;entryX=0.5;entryY=0;entryDx=0;entryDy=0;curved=1;" parent="1" source="KftTdbNhHA2uExKty297-8" target="KftTdbNhHA2uExKty297-17" edge="1">
          <mxGeometry width="50" height="50" relative="1" as="geometry">
            <mxPoint x="480" y="435" as="sourcePoint" />
            <mxPoint x="530" y="385" as="targetPoint" />
            <Array as="points">
              <mxPoint x="470" y="430" />
            </Array>
          </mxGeometry>
        </mxCell>
        <mxCell id="KftTdbNhHA2uExKty297-24" value="contactorData" style="text;html=1;align=center;verticalAlign=middle;resizable=0;points=[];autosize=1;fontSize=8;strokeWidth=1;" parent="1" vertex="1">
          <mxGeometry x="360" y="223" width="70" height="20" as="geometry" />
        </mxCell>
        <mxCell id="KftTdbNhHA2uExKty297-25" value="measureData" style="text;html=1;align=center;verticalAlign=middle;resizable=0;points=[];autosize=1;fontSize=8;strokeWidth=1;" parent="1" vertex="1">
          <mxGeometry x="280" y="265" width="60" height="20" as="geometry" />
        </mxCell>
        <mxCell id="KftTdbNhHA2uExKty297-26" value="logData" style="text;html=1;align=center;verticalAlign=middle;resizable=0;points=[];autosize=1;fontSize=8;strokeWidth=1;" parent="1" vertex="1">
          <mxGeometry x="70" y="185" width="40" height="20" as="geometry" />
        </mxCell>
        <mxCell id="KftTdbNhHA2uExKty297-27" value="updateVoltageOutRange" style="rounded=0;whiteSpace=wrap;html=1;strokeWidth=1;" parent="1" vertex="1">
          <mxGeometry x="130" y="565" width="140" height="60" as="geometry" />
        </mxCell>
        <mxCell id="KftTdbNhHA2uExKty297-28" value="updateOvercurrent" style="rounded=0;whiteSpace=wrap;html=1;strokeWidth=1;" parent="1" vertex="1">
          <mxGeometry y="565" width="120" height="60" as="geometry" />
        </mxCell>
        <mxCell id="KftTdbNhHA2uExKty297-29" value="updateHVILAlarm" style="rounded=0;whiteSpace=wrap;html=1;strokeWidth=1;" parent="1" vertex="1">
          <mxGeometry y="455" width="120" height="60" as="geometry" />
        </mxCell>
        <mxCell id="KftTdbNhHA2uExKty297-30" value="" style="endArrow=classic;html=1;strokeWidth=1;fontSize=8;entryX=0.167;entryY=0;entryDx=0;entryDy=0;entryPerimeter=0;exitX=0.056;exitY=1.022;exitDx=0;exitDy=0;exitPerimeter=0;" parent="1" source="KftTdbNhHA2uExKty297-10" target="KftTdbNhHA2uExKty297-29" edge="1">
          <mxGeometry width="50" height="50" relative="1" as="geometry">
            <mxPoint x="280" y="535" as="sourcePoint" />
            <mxPoint x="330" y="485" as="targetPoint" />
          </mxGeometry>
        </mxCell>
        <mxCell id="KftTdbNhHA2uExKty297-31" value="" style="endArrow=classic;html=1;strokeWidth=1;fontSize=8;exitX=0.161;exitY=0.991;exitDx=0;exitDy=0;exitPerimeter=0;entryX=0.25;entryY=0;entryDx=0;entryDy=0;curved=1;" parent="1" source="KftTdbNhHA2uExKty297-10" target="KftTdbNhHA2uExKty297-28" edge="1">
          <mxGeometry width="50" height="50" relative="1" as="geometry">
            <mxPoint x="170" y="565" as="sourcePoint" />
            <mxPoint x="220" y="515" as="targetPoint" />
            <Array as="points">
              <mxPoint x="150" y="540" />
              <mxPoint x="50" y="550" />
            </Array>
          </mxGeometry>
        </mxCell>
        <mxCell id="KftTdbNhHA2uExKty297-32" value="" style="endArrow=classic;html=1;strokeWidth=1;fontSize=8;exitX=0.25;exitY=1;exitDx=0;exitDy=0;entryX=0.231;entryY=-0.022;entryDx=0;entryDy=0;entryPerimeter=0;curved=1;" parent="1" source="KftTdbNhHA2uExKty297-10" target="KftTdbNhHA2uExKty297-27" edge="1">
          <mxGeometry width="50" height="50" relative="1" as="geometry">
            <mxPoint x="310" y="555" as="sourcePoint" />
            <mxPoint x="360" y="505" as="targetPoint" />
            <Array as="points">
              <mxPoint x="150" y="420" />
              <mxPoint x="162" y="530" />
            </Array>
          </mxGeometry>
        </mxCell>
        <mxCell id="KftTdbNhHA2uExKty297-33" value="" style="endArrow=classic;html=1;strokeWidth=1;startArrow=oval;startFill=0;" parent="1" edge="1">
          <mxGeometry width="50" height="50" relative="1" as="geometry">
            <mxPoint x="70" y="430" as="sourcePoint" />
            <mxPoint x="90" y="410" as="targetPoint" />
          </mxGeometry>
        </mxCell>
        <mxCell id="KftTdbNhHA2uExKty297-34" value="" style="endArrow=classic;html=1;strokeWidth=1;startArrow=oval;startFill=0;" parent="1" edge="1">
          <mxGeometry width="50" height="50" relative="1" as="geometry">
            <mxPoint x="80" y="540" as="sourcePoint" />
            <mxPoint x="110" y="530" as="targetPoint" />
          </mxGeometry>
        </mxCell>
        <mxCell id="KftTdbNhHA2uExKty297-35" value="" style="endArrow=classic;html=1;strokeWidth=1;startArrow=oval;startFill=0;" parent="1" edge="1">
          <mxGeometry width="50" height="50" relative="1" as="geometry">
            <mxPoint x="170" y="550" as="sourcePoint" />
            <mxPoint x="170" y="510" as="targetPoint" />
          </mxGeometry>
        </mxCell>
        <mxCell id="KftTdbNhHA2uExKty297-36" value="alarmHVIL" style="text;html=1;align=center;verticalAlign=middle;resizable=0;points=[];autosize=1;fontSize=8;strokeWidth=1;" parent="1" vertex="1">
          <mxGeometry x="35" y="430" width="50" height="20" as="geometry" />
        </mxCell>
        <mxCell id="KftTdbNhHA2uExKty297-37" value="alarmCurrent" style="text;html=1;align=center;verticalAlign=middle;resizable=0;points=[];autosize=1;fontSize=8;strokeWidth=1;" parent="1" vertex="1">
          <mxGeometry x="10" y="530" width="60" height="20" as="geometry" />
        </mxCell>
        <mxCell id="KftTdbNhHA2uExKty297-38" value="alarmVoltage" style="text;html=1;align=center;verticalAlign=middle;resizable=0;points=[];autosize=1;fontSize=8;strokeWidth=1;" parent="1" vertex="1">
          <mxGeometry x="170" y="530" width="60" height="20" as="geometry" />
        </mxCell>
        <mxCell id="KftTdbNhHA2uExKty297-39" value="chargeData" style="text;html=1;align=center;verticalAlign=middle;resizable=0;points=[];autosize=1;fontSize=8;strokeWidth=1;" parent="1" vertex="1">
          <mxGeometry x="500" y="215" width="60" height="20" as="geometry" />
        </mxCell>
        <mxCell id="KftTdbNhHA2uExKty297-40" value="" style="endArrow=classic;html=1;strokeWidth=1;startArrow=oval;startFill=0;" parent="1" edge="1">
          <mxGeometry width="50" height="50" relative="1" as="geometry">
            <mxPoint x="222.50000000000023" y="402.5" as="sourcePoint" />
            <mxPoint x="237.5" y="377.5" as="targetPoint" />
          </mxGeometry>
        </mxCell>
        <mxCell id="KftTdbNhHA2uExKty297-41" value="voltageData" style="text;html=1;align=center;verticalAlign=middle;resizable=0;points=[];autosize=1;fontSize=8;strokeWidth=1;" parent="1" vertex="1">
          <mxGeometry x="170" y="410" width="60" height="20" as="geometry" />
        </mxCell>
        <mxCell id="KftTdbNhHA2uExKty297-42" value="" style="endArrow=classic;html=1;strokeWidth=1;startArrow=oval;startFill=0;" parent="1" edge="1">
          <mxGeometry width="50" height="50" relative="1" as="geometry">
            <mxPoint x="300.0000000000002" y="502.5" as="sourcePoint" />
            <mxPoint x="300" y="468" as="targetPoint" />
            <Array as="points">
              <mxPoint x="300" y="487.5" />
            </Array>
          </mxGeometry>
        </mxCell>
        <mxCell id="KftTdbNhHA2uExKty297-43" value="currentData" style="text;html=1;align=center;verticalAlign=middle;resizable=0;points=[];autosize=1;fontSize=8;strokeWidth=1;" parent="1" vertex="1">
          <mxGeometry x="260" y="508.75" width="60" height="20" as="geometry" />
        </mxCell>
        <mxCell id="KftTdbNhHA2uExKty297-44" value="" style="endArrow=classic;html=1;strokeWidth=1;startArrow=oval;startFill=0;" parent="1" edge="1">
          <mxGeometry width="50" height="50" relative="1" as="geometry">
            <mxPoint x="380" y="410" as="sourcePoint" />
            <mxPoint x="365" y="380" as="targetPoint" />
            <Array as="points">
              <mxPoint x="380" y="400" />
            </Array>
          </mxGeometry>
        </mxCell>
        <mxCell id="KftTdbNhHA2uExKty297-45" value="temperatureData" style="text;html=1;align=center;verticalAlign=middle;resizable=0;points=[];autosize=1;fontSize=8;strokeWidth=1;" parent="1" vertex="1">
          <mxGeometry x="370" y="415" width="80" height="20" as="geometry" />
        </mxCell>
        <mxCell id="KftTdbNhHA2uExKty297-46" value="" style="endArrow=classic;html=1;strokeWidth=1;startArrow=oval;startFill=0;" parent="1" edge="1">
          <mxGeometry width="50" height="50" relative="1" as="geometry">
            <mxPoint x="485" y="435" as="sourcePoint" />
            <mxPoint x="465" y="415" as="targetPoint" />
            <Array as="points">
              <mxPoint x="475" y="425" />
              <mxPoint x="465" y="415" />
            </Array>
          </mxGeometry>
        </mxCell>
        <mxCell id="KftTdbNhHA2uExKty297-47" value="dataHVIL" style="text;html=1;align=center;verticalAlign=middle;resizable=0;points=[];autosize=1;fontSize=8;strokeWidth=1;" parent="1" vertex="1">
          <mxGeometry x="485" y="430" width="50" height="20" as="geometry" />
        </mxCell>
        <mxCell id="KftTdbNhHA2uExKty297-48" value="" style="endArrow=classic;html=1;strokeWidth=1;startArrow=oval;startFill=0;" parent="1" edge="1">
          <mxGeometry width="50" height="50" relative="1" as="geometry">
            <mxPoint x="635" y="400" as="sourcePoint" />
            <mxPoint x="615" y="380" as="targetPoint" />
            <Array as="points">
              <mxPoint x="625" y="390" />
            </Array>
          </mxGeometry>
        </mxCell>
        <mxCell id="KftTdbNhHA2uExKty297-49" value="dataSOC" style="text;html=1;align=center;verticalAlign=middle;resizable=0;points=[];autosize=1;fontSize=8;strokeWidth=1;" parent="1" vertex="1">
          <mxGeometry x="625" y="380" width="50" height="20" as="geometry" />
        </mxCell>
        <mxCell id="KftTdbNhHA2uExKty297-50" value="Touch Input" style="rounded=0;whiteSpace=wrap;html=1;strokeWidth=1;" parent="1" vertex="1">
          <mxGeometry x="790" y="295" width="120" height="60" as="geometry" />
        </mxCell>
        <mxCell id="KftTdbNhHA2uExKty297-51" value="" style="endArrow=classic;html=1;strokeWidth=1;startArrow=oval;startFill=1;" parent="1" edge="1">
          <mxGeometry width="50" height="50" relative="1" as="geometry">
            <mxPoint x="835" y="166.5" as="sourcePoint" />
            <mxPoint x="815" y="149.5" as="targetPoint" />
          </mxGeometry>
        </mxCell>
        <mxCell id="KftTdbNhHA2uExKty297-52" value="screenFlag" style="text;html=1;align=center;verticalAlign=middle;resizable=0;points=[];autosize=1;fontSize=8;strokeWidth=1;" parent="1" vertex="1">
          <mxGeometry x="825" y="139.5" width="60" height="20" as="geometry" />
        </mxCell>
        <mxCell id="KftTdbNhHA2uExKty297-53" value="" style="endArrow=classic;html=1;strokeWidth=1;startArrow=oval;startFill=0;" parent="1" edge="1">
          <mxGeometry width="50" height="50" relative="1" as="geometry">
            <mxPoint x="855" y="258" as="sourcePoint" />
            <mxPoint x="845" y="218" as="targetPoint" />
          </mxGeometry>
        </mxCell>
        <mxCell id="KftTdbNhHA2uExKty297-54" value="touchInputData" style="text;html=1;align=center;verticalAlign=middle;resizable=0;points=[];autosize=1;fontSize=8;strokeWidth=1;" parent="1" vertex="1">
          <mxGeometry x="845" y="223.00000000000006" width="70" height="20" as="geometry" />
        </mxCell>
        <mxCell id="KftTdbNhHA2uExKty297-55" value="" style="endArrow=classic;html=1;strokeWidth=1;startArrow=oval;startFill=0;" parent="1" edge="1">
          <mxGeometry width="50" height="50" relative="1" as="geometry">
            <mxPoint x="560" y="230" as="sourcePoint" />
            <mxPoint x="550.0000000000002" y="204.9999999999999" as="targetPoint" />
          </mxGeometry>
        </mxCell>
        <mxCell id="KftTdbNhHA2uExKty297-56" value="" style="endArrow=classic;html=1;strokeWidth=1;startArrow=oval;startFill=0;" parent="1" edge="1">
          <mxGeometry width="50" height="50" relative="1" as="geometry">
            <mxPoint x="420.0000000000002" y="254.9999999999999" as="sourcePoint" />
            <mxPoint x="430.0000000000002" y="214.9999999999999" as="targetPoint" />
          </mxGeometry>
        </mxCell>
        <mxCell id="KftTdbNhHA2uExKty297-57" value="" style="endArrow=classic;html=1;strokeWidth=1;startArrow=oval;startFill=0;" parent="1" edge="1">
          <mxGeometry width="50" height="50" relative="1" as="geometry">
            <mxPoint x="330" y="258" as="sourcePoint" />
            <mxPoint x="340" y="223" as="targetPoint" />
          </mxGeometry>
        </mxCell>
        <mxCell id="KftTdbNhHA2uExKty297-58" value="" style="endArrow=classic;html=1;strokeWidth=1;startArrow=oval;startFill=0;" parent="1" edge="1">
          <mxGeometry width="50" height="50" relative="1" as="geometry">
            <mxPoint x="110" y="189.8299999999999" as="sourcePoint" />
            <mxPoint x="130" y="170" as="targetPoint" />
          </mxGeometry>
        </mxCell>
        <mxCell id="KftTdbNhHA2uExKty297-65" value="" style="endArrow=classic;html=1;strokeWidth=1;startArrow=oval;startFill=1;" parent="1" edge="1">
          <mxGeometry width="50" height="50" relative="1" as="geometry">
            <mxPoint x="660" y="166" as="sourcePoint" />
            <mxPoint x="660" y="215" as="targetPoint" />
            <Array as="points">
              <mxPoint x="660" y="190" />
            </Array>
          </mxGeometry>
        </mxCell>
        <mxCell id="KftTdbNhHA2uExKty297-66" value="" style="endArrow=classic;html=1;strokeWidth=1;startArrow=oval;startFill=1;" parent="1" edge="1">
          <mxGeometry width="50" height="50" relative="1" as="geometry">
            <mxPoint x="685" y="140" as="sourcePoint" />
            <mxPoint x="685" y="180" as="targetPoint" />
            <Array as="points">
              <mxPoint x="685" y="140.13" />
            </Array>
          </mxGeometry>
        </mxCell>
        <mxCell id="KftTdbNhHA2uExKty297-67" value="&lt;font style=&quot;font-size: 8px&quot;&gt;updateFlag&lt;/font&gt;" style="text;html=1;align=center;verticalAlign=middle;resizable=0;points=[];autosize=1;rotation=0;strokeWidth=1;" parent="1" vertex="1">
          <mxGeometry x="680" y="150" width="60" height="20" as="geometry" />
        </mxCell>
        <mxCell id="KftTdbNhHA2uExKty297-68" value="&lt;font style=&quot;font-size: 8px&quot;&gt;displayFlag&lt;/font&gt;" style="text;html=1;align=center;verticalAlign=middle;resizable=0;points=[];autosize=1;strokeWidth=1;" parent="1" vertex="1">
          <mxGeometry x="590" y="185" width="60" height="20" as="geometry" />
        </mxCell>
        <mxCell id="KftTdbNhHA2uExKty297-69" value="" style="endArrow=classic;html=1;strokeWidth=1;startArrow=oval;startFill=1;" parent="1" edge="1">
          <mxGeometry width="50" height="50" relative="1" as="geometry">
            <mxPoint x="450" y="245" as="sourcePoint" />
            <mxPoint x="450.0000000000002" y="279.9999999999999" as="targetPoint" />
            <Array as="points" />
          </mxGeometry>
        </mxCell>
        <mxCell id="KftTdbNhHA2uExKty297-70" value="&lt;span style=&quot;font-size: 8px&quot;&gt;contactorFlag&lt;/span&gt;" style="text;html=1;align=center;verticalAlign=middle;resizable=0;points=[];autosize=1;strokeWidth=1;" parent="1" vertex="1">
          <mxGeometry x="450" y="245" width="60" height="20" as="geometry" />
        </mxCell>
        <mxCell id="HoIOViwTMnmnvjEIozFm-1" value="" style="endArrow=classic;html=1;strokeWidth=1;startArrow=oval;startFill=1;" parent="1" edge="1">
          <mxGeometry width="50" height="50" relative="1" as="geometry">
            <mxPoint x="190" y="255.52999999999997" as="sourcePoint" />
            <mxPoint x="190" y="282.5" as="targetPoint" />
            <Array as="points">
              <mxPoint x="190" y="255.02999999999997" />
            </Array>
          </mxGeometry>
        </mxCell>
        <mxCell id="HoIOViwTMnmnvjEIozFm-2" value="alarmFlag" style="text;html=1;align=center;verticalAlign=middle;resizable=0;points=[];autosize=1;fontSize=8;strokeWidth=1;" parent="1" vertex="1">
          <mxGeometry x="160" y="225" width="50" height="20" as="geometry" />
        </mxCell>
        <mxCell id="HoIOViwTMnmnvjEIozFm-3" value="measureFlag" style="text;html=1;align=center;verticalAlign=middle;resizable=0;points=[];autosize=1;fontSize=8;strokeWidth=1;" parent="1" vertex="1">
          <mxGeometry x="280" y="200" width="60" height="20" as="geometry" />
        </mxCell>
        <mxCell id="HoIOViwTMnmnvjEIozFm-4" value="" style="endArrow=classic;html=1;strokeWidth=1;startArrow=oval;startFill=1;" parent="1" edge="1">
          <mxGeometry width="50" height="50" relative="1" as="geometry">
            <mxPoint x="350" y="180" as="sourcePoint" />
            <mxPoint x="340" y="217.47" as="targetPoint" />
            <Array as="points">
              <mxPoint x="340" y="192.53" />
            </Array>
          </mxGeometry>
        </mxCell>
        <mxCell id="HoIOViwTMnmnvjEIozFm-7" value="" style="endArrow=classic;html=1;strokeWidth=1;startArrow=oval;startFill=1;" parent="1" edge="1">
          <mxGeometry width="50" height="50" relative="1" as="geometry">
            <mxPoint x="590" y="244.9999999999999" as="sourcePoint" />
            <mxPoint x="590.0000000000005" y="279.9999999999999" as="targetPoint" />
            <Array as="points" />
          </mxGeometry>
        </mxCell>
        <mxCell id="HoIOViwTMnmnvjEIozFm-8" value="socFlag" style="text;html=1;align=center;verticalAlign=middle;resizable=0;points=[];autosize=1;fontSize=8;strokeWidth=1;" parent="1" vertex="1">
          <mxGeometry x="590" y="245" width="40" height="20" as="geometry" />
        </mxCell>
        <mxCell id="HoIOViwTMnmnvjEIozFm-9" value="" style="endArrow=classic;html=1;strokeWidth=1;startArrow=oval;startFill=0;" parent="1" edge="1">
          <mxGeometry width="50" height="50" relative="1" as="geometry">
            <mxPoint x="652.5000000000002" y="129.9999999999999" as="sourcePoint" />
            <mxPoint x="628" y="100" as="targetPoint" />
          </mxGeometry>
        </mxCell>
        <mxCell id="HoIOViwTMnmnvjEIozFm-10" value="displayData" style="text;html=1;align=center;verticalAlign=middle;resizable=0;points=[];autosize=1;fontSize=8;strokeWidth=1;" parent="1" vertex="1">
          <mxGeometry x="590" y="110" width="60" height="20" as="geometry" />
        </mxCell>
        <mxCell id="HoIOViwTMnmnvjEIozFm-12" value="&lt;font style=&quot;font-size: 8px&quot;&gt;touchInputFlag&lt;/font&gt;" style="text;html=1;align=center;verticalAlign=middle;resizable=0;points=[];autosize=1;rotation=0;strokeWidth=1;" parent="1" vertex="1">
          <mxGeometry x="800" y="100" width="70" height="20" as="geometry" />
        </mxCell>
        <mxCell id="bA_NVb3vfEe2KMBQvN7c-1" value="" style="endArrow=classic;html=1;strokeWidth=1;startArrow=oval;startFill=1;" parent="1" edge="1">
          <mxGeometry width="50" height="50" relative="1" as="geometry">
            <mxPoint x="780" y="110" as="sourcePoint" />
            <mxPoint x="800" y="123" as="targetPoint" />
          </mxGeometry>
        </mxCell>
        <mxCell id="bA_NVb3vfEe2KMBQvN7c-2" value="Data Log" style="rounded=0;whiteSpace=wrap;html=1;strokeWidth=1;" parent="1" vertex="1">
          <mxGeometry x="-10" y="295" width="120" height="60" as="geometry" />
        </mxCell>
        <mxCell id="bA_NVb3vfEe2KMBQvN7c-3" value="" style="endArrow=classic;html=1;exitX=0;exitY=0.75;exitDx=0;exitDy=0;entryX=0.602;entryY=0.022;entryDx=0;entryDy=0;entryPerimeter=0;curved=1;strokeWidth=1;" parent="1" source="KftTdbNhHA2uExKty297-7" target="bA_NVb3vfEe2KMBQvN7c-2" edge="1">
          <mxGeometry width="50" height="50" relative="1" as="geometry">
            <mxPoint x="-30" y="140" as="sourcePoint" />
            <mxPoint x="20" y="90" as="targetPoint" />
            <Array as="points">
              <mxPoint x="120" y="140" />
            </Array>
          </mxGeometry>
        </mxCell>
        <mxCell id="bA_NVb3vfEe2KMBQvN7c-4" value="updateLog" style="rounded=0;whiteSpace=wrap;html=1;strokeWidth=1;" parent="1" vertex="1">
          <mxGeometry x="-130" y="455" width="120" height="60" as="geometry" />
        </mxCell>
        <mxCell id="bA_NVb3vfEe2KMBQvN7c-5" value="" style="endArrow=classic;html=1;exitX=0;exitY=1;exitDx=0;exitDy=0;entryX=0.458;entryY=-0.035;entryDx=0;entryDy=0;entryPerimeter=0;curved=1;strokeWidth=1;" parent="1" source="bA_NVb3vfEe2KMBQvN7c-2" target="bA_NVb3vfEe2KMBQvN7c-4" edge="1">
          <mxGeometry width="50" height="50" relative="1" as="geometry">
            <mxPoint x="-150" y="270" as="sourcePoint" />
            <mxPoint x="-100" y="220" as="targetPoint" />
            <Array as="points">
              <mxPoint x="-60" y="380" />
            </Array>
          </mxGeometry>
        </mxCell>
        <mxCell id="bA_NVb3vfEe2KMBQvN7c-6" value="" style="endArrow=classic;html=1;strokeWidth=1;startArrow=oval;startFill=0;" parent="1" edge="1">
          <mxGeometry width="50" height="50" relative="1" as="geometry">
            <mxPoint x="-169.99999999999991" y="369.9999999999999" as="sourcePoint" />
            <mxPoint x="-160" y="350" as="targetPoint" />
          </mxGeometry>
        </mxCell>
        <mxCell id="bA_NVb3vfEe2KMBQvN7c-7" value="userUpdate" style="text;html=1;align=center;verticalAlign=middle;resizable=0;points=[];autosize=1;fontSize=8;strokeWidth=1;" parent="1" vertex="1">
          <mxGeometry x="-215" y="370" width="60" height="20" as="geometry" />
        </mxCell>
        <mxCell id="bA_NVb3vfEe2KMBQvN7c-8" value="Remote Terminal" style="rounded=0;whiteSpace=wrap;html=1;strokeWidth=1;" parent="1" vertex="1">
          <mxGeometry x="-150" y="295" width="120" height="60" as="geometry" />
        </mxCell>
        <mxCell id="bA_NVb3vfEe2KMBQvN7c-9" value="" style="endArrow=classic;html=1;strokeWidth=1;exitX=0;exitY=0.5;exitDx=0;exitDy=0;entryX=0.5;entryY=0;entryDx=0;entryDy=0;curved=1;" parent="1" source="KftTdbNhHA2uExKty297-7" target="bA_NVb3vfEe2KMBQvN7c-8" edge="1">
          <mxGeometry width="50" height="50" relative="1" as="geometry">
            <mxPoint x="-20" y="130" as="sourcePoint" />
            <mxPoint x="30" y="80" as="targetPoint" />
            <Array as="points">
              <mxPoint x="110" y="140" />
            </Array>
          </mxGeometry>
        </mxCell>
        <mxCell id="bA_NVb3vfEe2KMBQvN7c-10" value="userMonitorInput" style="rounded=0;whiteSpace=wrap;html=1;strokeWidth=1;" parent="1" vertex="1">
          <mxGeometry x="-210" y="390" width="120" height="60" as="geometry" />
        </mxCell>
        <mxCell id="bA_NVb3vfEe2KMBQvN7c-11" value="" style="endArrow=classic;html=1;strokeWidth=1;exitX=0.118;exitY=1.023;exitDx=0;exitDy=0;exitPerimeter=0;entryX=0.448;entryY=0.01;entryDx=0;entryDy=0;entryPerimeter=0;" parent="1" source="bA_NVb3vfEe2KMBQvN7c-8" target="bA_NVb3vfEe2KMBQvN7c-10" edge="1">
          <mxGeometry width="50" height="50" relative="1" as="geometry">
            <mxPoint x="-250" y="310" as="sourcePoint" />
            <mxPoint x="-200" y="260" as="targetPoint" />
          </mxGeometry>
        </mxCell>
        <mxCell id="bA_NVb3vfEe2KMBQvN7c-13" value="" style="endArrow=classic;html=1;strokeWidth=1;startArrow=oval;startFill=0;" parent="1" edge="1">
          <mxGeometry width="50" height="50" relative="1" as="geometry">
            <mxPoint x="930" y="370" as="sourcePoint" />
            <mxPoint x="920" y="350" as="targetPoint" />
          </mxGeometry>
        </mxCell>
        <mxCell id="bA_NVb3vfEe2KMBQvN7c-14" value="userTouchInput" style="rounded=0;whiteSpace=wrap;html=1;strokeWidth=1;" parent="1" vertex="1">
          <mxGeometry x="870" y="380" width="120" height="60" as="geometry" />
        </mxCell>
        <mxCell id="bA_NVb3vfEe2KMBQvN7c-15" value="" style="endArrow=classic;html=1;strokeWidth=1;exitX=0.558;exitY=1.041;exitDx=0;exitDy=0;exitPerimeter=0;entryX=0;entryY=0;entryDx=0;entryDy=0;" parent="1" source="KftTdbNhHA2uExKty297-50" target="bA_NVb3vfEe2KMBQvN7c-14" edge="1">
          <mxGeometry width="50" height="50" relative="1" as="geometry">
            <mxPoint x="959.1600000000001" y="346.38" as="sourcePoint" />
            <mxPoint x="895" y="250" as="targetPoint" />
          </mxGeometry>
        </mxCell>
        <mxCell id="bA_NVb3vfEe2KMBQvN7c-16" value="dataTouchInput" style="text;html=1;align=center;verticalAlign=middle;resizable=0;points=[];autosize=1;fontSize=8;strokeWidth=1;" parent="1" vertex="1">
          <mxGeometry x="930" y="355" width="70" height="20" as="geometry" />
        </mxCell>
        <mxCell id="bA_NVb3vfEe2KMBQvN7c-20" value="" style="endArrow=classic;html=1;strokeWidth=1;startArrow=oval;startFill=1;" parent="1" edge="1">
          <mxGeometry width="50" height="50" relative="1" as="geometry">
            <mxPoint x="72.5" y="243.49999999999997" as="sourcePoint" />
            <mxPoint x="57.5" y="267.97" as="targetPoint" />
            <Array as="points">
              <mxPoint x="72.5" y="242.99999999999997" />
            </Array>
          </mxGeometry>
        </mxCell>
        <mxCell id="bA_NVb3vfEe2KMBQvN7c-21" value="dataLogFlag" style="text;html=1;align=center;verticalAlign=middle;resizable=0;points=[];autosize=1;fontSize=8;strokeWidth=1;" parent="1" vertex="1">
          <mxGeometry x="10" y="235" width="60" height="20" as="geometry" />
        </mxCell>
        <mxCell id="bA_NVb3vfEe2KMBQvN7c-22" value="remoteData" style="text;html=1;align=center;verticalAlign=middle;resizable=0;points=[];autosize=1;fontSize=8;strokeWidth=1;" parent="1" vertex="1">
          <mxGeometry x="-30" y="185" width="60" height="20" as="geometry" />
        </mxCell>
        <mxCell id="bA_NVb3vfEe2KMBQvN7c-23" value="" style="endArrow=classic;html=1;strokeWidth=1;startArrow=oval;startFill=0;" parent="1" edge="1">
          <mxGeometry width="50" height="50" relative="1" as="geometry">
            <mxPoint x="35" y="189.82999999999993" as="sourcePoint" />
            <mxPoint x="55" y="170" as="targetPoint" />
          </mxGeometry>
        </mxCell>
        <mxCell id="bA_NVb3vfEe2KMBQvN7c-24" value="" style="endArrow=classic;html=1;strokeWidth=1;startArrow=oval;startFill=1;" parent="1" edge="1">
          <mxGeometry width="50" height="50" relative="1" as="geometry">
            <mxPoint x="-40" y="245.49999999999997" as="sourcePoint" />
            <mxPoint x="-60" y="260" as="targetPoint" />
            <Array as="points">
              <mxPoint x="-40" y="244.99999999999997" />
            </Array>
          </mxGeometry>
        </mxCell>
        <mxCell id="bA_NVb3vfEe2KMBQvN7c-25" value="remoteFlag" style="text;html=1;align=center;verticalAlign=middle;resizable=0;points=[];autosize=1;fontSize=8;strokeWidth=1;" parent="1" vertex="1">
          <mxGeometry x="-70" y="215" width="60" height="20" as="geometry" />
        </mxCell>
        <mxCell id="bA_NVb3vfEe2KMBQvN7c-26" value="" style="endArrow=classic;html=1;strokeWidth=1;fontSize=8;exitX=0;exitY=1;exitDx=0;exitDy=0;entryX=0.341;entryY=-0.026;entryDx=0;entryDy=0;entryPerimeter=0;" parent="1" source="KftTdbNhHA2uExKty297-17" target="bA_NVb3vfEe2KMBQvN7c-28" edge="1">
          <mxGeometry width="50" height="50" relative="1" as="geometry">
            <mxPoint x="524.8" y="515" as="sourcePoint" />
            <mxPoint x="540" y="567" as="targetPoint" />
          </mxGeometry>
        </mxCell>
        <mxCell id="bA_NVb3vfEe2KMBQvN7c-27" value="" style="endArrow=classic;html=1;strokeWidth=1;startArrow=oval;startFill=0;" parent="1" edge="1">
          <mxGeometry width="50" height="50" relative="1" as="geometry">
            <mxPoint x="467.5" y="555" as="sourcePoint" />
            <mxPoint x="468" y="540" as="targetPoint" />
          </mxGeometry>
        </mxCell>
        <mxCell id="bA_NVb3vfEe2KMBQvN7c-28" value="hvilInterrupt" style="rounded=0;whiteSpace=wrap;html=1;strokeWidth=1;" parent="1" vertex="1">
          <mxGeometry x="410" y="565" width="120" height="60" as="geometry" />
        </mxCell>
        <mxCell id="bA_NVb3vfEe2KMBQvN7c-29" value="&lt;font style=&quot;font-size: 8px&quot;&gt;interruptData&lt;/font&gt;" style="text;html=1;align=center;verticalAlign=middle;resizable=0;points=[];autosize=1;" parent="1" vertex="1">
          <mxGeometry x="470" y="540" width="60" height="20" as="geometry" />
        </mxCell>
        <mxCell id="bA_NVb3vfEe2KMBQvN7c-31" value="" style="endArrow=classic;html=1;strokeWidth=1;startArrow=oval;startFill=0;" parent="1" edge="1">
          <mxGeometry width="50" height="50" relative="1" as="geometry">
            <mxPoint x="620" y="520" as="sourcePoint" />
            <mxPoint x="600" y="500" as="targetPoint" />
            <Array as="points">
              <mxPoint x="610" y="510" />
              <mxPoint x="600" y="500" />
            </Array>
          </mxGeometry>
        </mxCell>
        <mxCell id="bA_NVb3vfEe2KMBQvN7c-32" value="dataContactor" style="text;html=1;align=center;verticalAlign=middle;resizable=0;points=[];autosize=1;fontSize=8;strokeWidth=1;" parent="1" vertex="1">
          <mxGeometry x="610" y="520" width="70" height="20" as="geometry" />
        </mxCell>
        <mxCell id="bA_NVb3vfEe2KMBQvN7c-33" value="updateSOC" style="rounded=0;whiteSpace=wrap;html=1;strokeWidth=1;" parent="1" vertex="1">
          <mxGeometry x="590" y="420" width="120" height="60" as="geometry" />
        </mxCell>
        <mxCell id="bA_NVb3vfEe2KMBQvN7c-34" value="" style="endArrow=classic;html=1;strokeWidth=1;exitX=0.515;exitY=1.04;exitDx=0;exitDy=0;exitPerimeter=0;entryX=0.364;entryY=-0.037;entryDx=0;entryDy=0;entryPerimeter=0;" parent="1" source="KftTdbNhHA2uExKty297-11" target="bA_NVb3vfEe2KMBQvN7c-33" edge="1">
          <mxGeometry width="50" height="50" relative="1" as="geometry">
            <mxPoint x="610" y="440" as="sourcePoint" />
            <mxPoint x="660" y="390" as="targetPoint" />
          </mxGeometry>
        </mxCell>
        <mxCell id="bA_NVb3vfEe2KMBQvN7c-35" value="measureScreen" style="rounded=0;whiteSpace=wrap;html=1;strokeWidth=1;" parent="1" vertex="1">
          <mxGeometry x="690" y="505" width="120" height="60" as="geometry" />
        </mxCell>
        <mxCell id="bA_NVb3vfEe2KMBQvN7c-36" value="alarmScreen" style="rounded=0;whiteSpace=wrap;html=1;strokeWidth=1;" parent="1" vertex="1">
          <mxGeometry x="820" y="570" width="120" height="60" as="geometry" />
        </mxCell>
        <mxCell id="bA_NVb3vfEe2KMBQvN7c-37" value="batteryScreen" style="rounded=0;whiteSpace=wrap;html=1;strokeWidth=1;" parent="1" vertex="1">
          <mxGeometry x="860" y="470" width="120" height="60" as="geometry" />
        </mxCell>
        <mxCell id="bA_NVb3vfEe2KMBQvN7c-38" value="" style="endArrow=classic;html=1;strokeWidth=1;exitX=0.5;exitY=1;exitDx=0;exitDy=0;entryX=0.25;entryY=0;entryDx=0;entryDy=0;" parent="1" source="KftTdbNhHA2uExKty297-13" target="bA_NVb3vfEe2KMBQvN7c-35" edge="1">
          <mxGeometry width="50" height="50" relative="1" as="geometry">
            <mxPoint x="790" y="440" as="sourcePoint" />
            <mxPoint x="840" y="390" as="targetPoint" />
          </mxGeometry>
        </mxCell>
        <mxCell id="bA_NVb3vfEe2KMBQvN7c-39" value="" style="endArrow=classic;html=1;strokeWidth=1;exitX=0.5;exitY=1;exitDx=0;exitDy=0;curved=1;entryX=0.065;entryY=0.006;entryDx=0;entryDy=0;entryPerimeter=0;" parent="1" target="bA_NVb3vfEe2KMBQvN7c-37" edge="1">
          <mxGeometry width="50" height="50" relative="1" as="geometry">
            <mxPoint x="760" y="355" as="sourcePoint" />
            <mxPoint x="870" y="440" as="targetPoint" />
            <Array as="points">
              <mxPoint x="840" y="450" />
              <mxPoint x="860" y="450" />
            </Array>
          </mxGeometry>
        </mxCell>
        <mxCell id="bA_NVb3vfEe2KMBQvN7c-42" value="" style="endArrow=classic;html=1;strokeWidth=1;startArrow=oval;startFill=0;" parent="1" edge="1">
          <mxGeometry width="50" height="50" relative="1" as="geometry">
            <mxPoint x="730" y="480" as="sourcePoint" />
            <mxPoint x="730" y="450" as="targetPoint" />
            <Array as="points">
              <mxPoint x="730" y="450" />
            </Array>
          </mxGeometry>
        </mxCell>
        <mxCell id="bA_NVb3vfEe2KMBQvN7c-43" value="measureData" style="text;html=1;align=center;verticalAlign=middle;resizable=0;points=[];autosize=1;fontSize=8;strokeWidth=1;" parent="1" vertex="1">
          <mxGeometry x="725" y="480" width="60" height="20" as="geometry" />
        </mxCell>
        <mxCell id="bA_NVb3vfEe2KMBQvN7c-44" value="alarmData" style="text;html=1;align=center;verticalAlign=middle;resizable=0;points=[];autosize=1;fontSize=8;strokeWidth=1;" parent="1" vertex="1">
          <mxGeometry x="810" y="545" width="50" height="20" as="geometry" />
        </mxCell>
        <mxCell id="bA_NVb3vfEe2KMBQvN7c-45" value="batteryData" style="text;html=1;align=center;verticalAlign=middle;resizable=0;points=[];autosize=1;fontSize=8;strokeWidth=1;" parent="1" vertex="1">
          <mxGeometry x="810" y="400" width="60" height="20" as="geometry" />
        </mxCell>
        <mxCell id="bA_NVb3vfEe2KMBQvN7c-46" value="" style="endArrow=classic;html=1;strokeWidth=1;startArrow=oval;startFill=0;" parent="1" edge="1">
          <mxGeometry width="50" height="50" relative="1" as="geometry">
            <mxPoint x="820" y="400" as="sourcePoint" />
            <mxPoint x="800" y="380" as="targetPoint" />
            <Array as="points">
              <mxPoint x="810" y="390" />
              <mxPoint x="800" y="380" />
            </Array>
          </mxGeometry>
        </mxCell>
        <mxCell id="bA_NVb3vfEe2KMBQvN7c-47" value="" style="endArrow=classic;html=1;strokeWidth=1;startArrow=oval;startFill=0;" parent="1" edge="1">
          <mxGeometry width="50" height="50" relative="1" as="geometry">
            <mxPoint x="830" y="530" as="sourcePoint" />
            <mxPoint x="820" y="505" as="targetPoint" />
            <Array as="points">
              <mxPoint x="820" y="505" />
            </Array>
          </mxGeometry>
        </mxCell>
        <mxCell id="bA_NVb3vfEe2KMBQvN7c-48" value="" style="endArrow=classic;html=1;strokeWidth=1;exitX=0.702;exitY=1.023;exitDx=0;exitDy=0;exitPerimeter=0;entryX=0.479;entryY=-0.042;entryDx=0;entryDy=0;entryPerimeter=0;" parent="1" source="KftTdbNhHA2uExKty297-13" target="bA_NVb3vfEe2KMBQvN7c-36" edge="1">
          <mxGeometry width="50" height="50" relative="1" as="geometry">
            <mxPoint x="760" y="480" as="sourcePoint" />
            <mxPoint x="810" y="430" as="targetPoint" />
          </mxGeometry>
        </mxCell>
        <mxCell id="bA_NVb3vfEe2KMBQvN7c-50" value="logData" style="text;html=1;align=center;verticalAlign=middle;resizable=0;points=[];autosize=1;fontSize=8;strokeWidth=1;" parent="1" vertex="1">
          <mxGeometry x="-70" y="430" width="40" height="20" as="geometry" />
        </mxCell>
        <mxCell id="q-k2-m0W_T3CNa1qpXj4-1" value="" style="endArrow=classic;html=1;strokeWidth=1;startArrow=oval;startFill=0;" edge="1" parent="1">
          <mxGeometry width="50" height="50" relative="1" as="geometry">
            <mxPoint x="-50" y="420" as="sourcePoint" />
            <mxPoint x="-30" y="399.9999999999999" as="targetPoint" />
          </mxGeometry>
        </mxCell>
        <mxCell id="q-k2-m0W_T3CNa1qpXj4-2" value="" style="endArrow=classic;html=1;strokeWidth=1;startArrow=oval;startFill=0;" edge="1" parent="1">
          <mxGeometry width="50" height="50" relative="1" as="geometry">
            <mxPoint x="220" y="235" as="sourcePoint" />
            <mxPoint x="240" y="215" as="targetPoint" />
          </mxGeometry>
        </mxCell>
        <mxCell id="q-k2-m0W_T3CNa1qpXj4-3" value="alarmData" style="text;html=1;align=center;verticalAlign=middle;resizable=0;points=[];autosize=1;fontSize=8;strokeWidth=1;" vertex="1" parent="1">
          <mxGeometry x="202.5" y="245" width="50" height="20" as="geometry" />
        </mxCell>
      </root>
    </mxGraphModel>
  </diagram>
</mxfile>
